<svg width="90" height="20" viewBox="0 0 90 20" fill="none" xmlns="http://www.w3.org/2000/svg">
<path d="M26.2103 4.36364H28.7898L32.2443 12.7955H32.3807L35.8353 4.36364H38.4148V16H36.3921V8.00568H36.2841L33.0682 15.9659H31.5568L28.3409 7.98864H28.233V16H26.2103V4.36364Z" fill="#1B1B1B"/>
<path d="M41.0978 19.2727C40.8175 19.2727 40.558 19.25 40.3193 19.2045C40.0845 19.1629 39.897 19.1136 39.7568 19.0568L40.2341 17.4545C40.5334 17.5417 40.8004 17.5833 41.0353 17.5795C41.2701 17.5758 41.4765 17.5019 41.6546 17.358C41.8364 17.2178 41.9898 16.983 42.1148 16.6534L42.2909 16.1818L39.1262 7.27273H41.308L43.3193 13.8636H43.4103L45.4273 7.27273H47.6148L44.1205 17.0568C43.9576 17.5189 43.7417 17.9148 43.4728 18.2443C43.2038 18.5777 42.8743 18.8314 42.4841 19.0057C42.0978 19.1837 41.6356 19.2727 41.0978 19.2727Z" fill="#1B1B1B"/>
<path d="M48.329 16V4.36364H50.437V14.233H55.562V16H48.329Z" fill="#1B1B1B"/>
<path d="M56.5006 16V7.27273H58.5574V16H56.5006ZM57.5347 6.03409C57.2089 6.03409 56.9286 5.92614 56.6938 5.71023C56.4589 5.49053 56.3415 5.22727 56.3415 4.92045C56.3415 4.60985 56.4589 4.34659 56.6938 4.13068C56.9286 3.91098 57.2089 3.80114 57.5347 3.80114C57.8642 3.80114 58.1445 3.91098 58.3756 4.13068C58.6104 4.34659 58.7279 4.60985 58.7279 4.92045C58.7279 5.22727 58.6104 5.49053 58.3756 5.71023C58.1445 5.92614 57.8642 6.03409 57.5347 6.03409Z" fill="#1B1B1B"/>
<path d="M61.9293 10.8864V16H59.8725V7.27273H61.8384V8.75568H61.9407C62.1414 8.26705 62.4615 7.87879 62.9009 7.59091C63.3441 7.30303 63.8914 7.15909 64.5429 7.15909C65.1452 7.15909 65.6698 7.28788 66.1168 7.54545C66.5675 7.80303 66.916 8.17614 67.1622 8.66477C67.4122 9.15341 67.5353 9.74621 67.5316 10.4432V16H65.4747V10.7614C65.4747 10.178 65.3232 9.72159 65.0202 9.39205C64.721 9.0625 64.3062 8.89773 63.7759 8.89773C63.416 8.89773 63.096 8.97727 62.8157 9.13636C62.5391 9.29167 62.3213 9.51705 62.1622 9.8125C62.0069 10.108 61.9293 10.4659 61.9293 10.8864Z" fill="#1B1B1B"/>
<path d="M70.6975 13.2614L70.6918 10.7784H71.0213L74.1577 7.27273H76.5611L72.7032 11.5682H72.277L70.6975 13.2614ZM68.8225 16V4.36364H70.8793V16H68.8225ZM74.2997 16L71.4588 12.0284L72.8452 10.5795L76.76 16H74.2997Z" fill="#1B1B1B"/>
<path d="M78.504 19.2727C78.2237 19.2727 77.9642 19.25 77.7256 19.2045C77.4908 19.1629 77.3033 19.1136 77.1631 19.0568L77.6404 17.4545C77.9396 17.5417 78.2067 17.5833 78.4415 17.5795C78.6764 17.5758 78.8828 17.5019 79.0608 17.358C79.2426 17.2178 79.3961 16.983 79.5211 16.6534L79.6972 16.1818L76.5324 7.27273H78.7142L80.7256 13.8636H80.8165L82.8336 7.27273H85.0211L81.5267 17.0568C81.3639 17.5189 81.1479 17.9148 80.879 18.2443C80.6101 18.5777 80.2805 18.8314 79.8904 19.0057C79.504 19.1837 79.0419 19.2727 78.504 19.2727Z" fill="#1B1B1B"/>
<path d="M86.3645 16.125C86.0198 16.125 85.7244 16.0038 85.4782 15.7614C85.2319 15.5189 85.1107 15.2235 85.1145 14.875C85.1107 14.5341 85.2319 14.2424 85.4782 14C85.7244 13.7576 86.0198 13.6364 86.3645 13.6364C86.6979 13.6364 86.9876 13.7576 87.2338 14C87.4838 14.2424 87.6107 14.5341 87.6145 14.875C87.6107 15.1061 87.5501 15.3163 87.4327 15.5057C87.3191 15.6951 87.1675 15.8466 86.9782 15.9602C86.7925 16.0701 86.588 16.125 86.3645 16.125Z" fill="#1B1B1B"/>
<g clip-path="url(#clip0_11_163)">
<mask id="path-2-inside-1_11_163" fill="white">
<path d="M12.9079 5.96805C14.6481 5.66003 16.4405 6.01489 17.9321 6.96274C19.4237 7.91058 20.5062 9.38266 20.9664 11.0889C21.4265 12.7952 21.231 14.612 20.4183 16.1813C19.6056 17.7506 18.2346 18.9586 16.5755 19.5673C14.9164 20.1761 13.0895 20.1414 11.4547 19.4701C9.81987 18.7988 8.49574 17.5396 7.74317 15.9406C6.99061 14.3416 6.86417 12.5188 7.38877 10.8312C7.91338 9.14358 9.05099 7.71365 10.5775 6.8231L11.4997 8.40395C10.3684 9.06396 9.52529 10.1237 9.13649 11.3745C8.74768 12.6252 8.84139 13.9762 9.39914 15.1613C9.95689 16.3463 10.9382 17.2796 12.1499 17.7771C13.3615 18.2746 14.7155 18.3003 15.9451 17.8491C17.1747 17.398 18.1907 16.5027 18.7931 15.3396C19.3954 14.1766 19.5403 12.8301 19.1993 11.5655C18.8582 10.3009 18.056 9.20992 16.9505 8.50744C15.8451 7.80496 14.5166 7.54196 13.2269 7.77025L12.9079 5.96805Z"/>
<path d="M4.78477 8.21467C4.08773 8.40172 3.44848 9.06946 3.216 9.37995C3.23921 9.35158 3.26584 9.32344 3.29542 9.29561C3.72585 8.84854 4.23063 8.48326 4.78477 8.21467Z"/>
<path fill-rule="evenodd" clip-rule="evenodd" d="M5.14507 12.3041C4.26025 11.5006 3.60065 10.4926 3.216 9.37995C3.23921 9.35158 3.26584 9.32344 3.29542 9.29561C3.66131 8.95128 4.47866 8.65305 4.86871 8.54029C5.13773 9.46054 5.6562 10.296 6.37548 10.9492L5.14507 12.3041ZM4.78477 8.21467C5.22838 7.99965 5.70362 7.84661 6.19767 7.76319C7.48916 7.54512 8.81549 7.81863 9.91534 8.52983C11.0152 9.24104 11.8088 10.3384 12.1398 11.6056C12.1555 11.6654 12.17 11.7253 12.1834 11.7854C12.0357 11.857 11.884 11.9219 11.729 11.9797C10.5017 12.4374 9.14763 12.4188 7.93341 11.9277L7.24717 13.6244C8.8456 14.2709 10.6237 14.3105 12.2472 13.7385C12.1586 14.306 11.9765 14.8598 11.7038 15.3764L13.3223 16.2309C13.8955 15.1452 14.1718 13.9377 14.1373 12.7283C14.9927 12.0874 15.6988 11.2556 16.1933 10.2883C16.9977 8.71474 17.1837 6.89697 16.7145 5.19313C16.2453 3.4893 15.1551 2.02295 13.6585 1.08299C12.162 0.143037 10.3677 -0.202364 8.62911 0.114841C6.89056 0.432046 5.33384 1.38886 4.26567 2.79676C3.28852 4.08468 2.78502 5.66466 2.83091 7.2717C2.33318 7.64458 1.883 8.08437 1.49451 8.58264C0.407851 9.97632 -0.117455 11.7264 0.0220868 13.4882C0.161628 15.2499 0.955898 16.8955 2.24841 18.1007C3.54091 19.306 5.23793 19.9835 7.00511 19.9997C8.77228 20.0159 10.4815 19.3698 11.7959 18.1885L10.5726 16.8272C9.59838 17.7027 8.33164 18.1816 7.02193 18.1696C5.71222 18.1575 4.4545 17.6554 3.49658 16.7622C2.53866 15.8689 1.95 14.6493 1.84658 13.3437C1.74316 12.038 2.13248 10.7409 2.93784 9.708C3.02634 9.5945 3.11916 9.48509 3.216 9.37995C3.44848 9.06946 4.08773 8.40172 4.78477 8.21467ZM5.89295 5.95853C5.49186 6.02625 5.09996 6.12799 4.72101 6.26148C4.85387 5.41095 5.19538 4.59936 5.72372 3.90298C6.51538 2.85954 7.66911 2.15042 8.95761 1.91533C10.2461 1.68023 11.5759 1.93622 12.6851 2.63286C13.7942 3.32949 14.6022 4.41625 14.95 5.67902C15.2977 6.94179 15.1599 8.28899 14.5637 9.45521C14.3455 9.88195 14.0718 10.2731 13.7522 10.6201C13.238 9.13241 12.2396 7.85329 10.9091 6.99295C9.42513 6.03333 7.63553 5.66428 5.89295 5.95853Z"/>
<path d="M4.86871 8.54029C4.83731 8.43286 4.8093 8.32426 4.78477 8.21467C4.23063 8.48326 3.72585 8.84854 3.29542 9.29561C3.66131 8.95128 4.47866 8.65305 4.86871 8.54029Z"/>
</mask>
<path d="M2.85809 7.72129L-121.611 19.2344L2.85809 7.72129ZM12.3684 13.6946L-31.3071 -103.427L12.3684 13.6946ZM4.68052 7.55272L129.149 -3.96039L4.68052 7.55272ZM13.9106 11.143L134.853 -20.4491L134.852 -20.4491L13.9106 11.143ZM3.216 9.37995L-114.924 50.2209L-46.5707 247.945L95.1597 94.0638L3.216 9.37995ZM4.86871 8.54029L39.5813 128.624L156.221 94.9067L125.911 -22.6641L4.86871 8.54029ZM12.1834 11.7854L-42.3311 -100.701L-131.426 -57.5226L-109.797 39.0925L12.1834 11.7854ZM12.2472 13.7385L-111.256 -5.54976L-143.537 201.149L53.7811 131.637L12.2472 13.7385ZM14.1373 12.7283L89.0887 112.765L140.933 73.9212L139.087 9.16635L14.1373 12.7283ZM2.83091 7.2717L-72.1162 -92.768L-123.968 -53.9223L-122.118 10.8397L2.83091 7.2717ZM4.72101 6.26148L128.223 25.5542L160.513 -181.149L-36.8116 -111.637L4.72101 6.26148ZM13.7522 10.6201L131.894 -30.215L63.5507 -227.942L-78.1874 -74.0682L13.7522 10.6201ZM121.356 -31.461C124.428 -22.5749 126.448 -13.2879 127.327 -3.79182L-121.611 19.2344C-120.627 29.8697 -118.364 40.2697 -114.924 50.2209L121.356 -31.461ZM-119.788 19.0658C-119.274 24.623 -118.406 30.1177 -117.197 35.5174L126.767 -19.0881C127.878 -14.1226 128.677 -9.07004 129.149 -3.96039L-119.788 19.0658ZM103.274 84.302C97.6706 91.7858 91.1464 98.7211 83.6694 104.928C77.1121 110.372 61.3026 122.471 37.1819 128.943L-27.6124 -112.514C-52.4301 -105.854 -68.9077 -93.3281 -76.0171 -87.4262C-84.046 -80.7608 -91.0062 -73.3364 -96.8424 -65.5421L103.274 84.302ZM-116.258 39.4191L-116.174 39.7447L125.911 -22.6641L125.827 -22.9897L-116.258 39.4191ZM99.9508 88.5468C96.0174 93.353 92.217 97.2612 88.9613 100.325L-82.3704 -81.7338C-85.6853 -78.6143 -89.5389 -74.6499 -93.5188 -69.7868L99.9508 88.5468ZM93.3438 95.9921C83.501 106.215 71.9641 114.562 59.3046 120.698L-49.7351 -104.269C-63.5029 -97.5959 -76.0493 -88.5184 -86.753 -77.4009L93.3438 95.9921ZM-29.8439 -111.543C-34.74 -110.128 -40.3521 -108.191 -46.3358 -105.554C-49.2046 -104.29 -65.9395 -97.1966 -82.3703 -81.734L88.9611 100.325C79.5952 109.139 70.9262 114.515 66.5488 117.065C61.5677 119.966 57.3065 121.971 54.4818 123.216C49.0958 125.59 44.0874 127.321 39.5813 128.624L-29.8439 -111.543ZM-86.753 -77.4009C-87.4184 -76.7097 -88.0767 -76.0107 -88.7277 -75.3039L95.1597 94.0638C94.5611 94.7138 93.9557 95.3566 93.3439 95.9921L-86.753 -77.4009ZM-104.39 51.4552C-105.38 48.591 -106.261 45.6823 -107.031 42.7352L134.852 -20.4491C133.99 -23.75 133.003 -27.0075 131.894 -30.215L-104.39 51.4552ZM127.327 -3.79182C127.558 -1.29336 127.709 1.20643 127.78 3.70365L-122.118 10.8397C-122.038 13.6364 -121.869 16.436 -121.611 19.2344L127.327 -3.79182ZM-107.031 42.7352C-109.304 34.0331 -110.559 25.1589 -110.812 16.2903L139.087 9.16635C138.803 -0.765187 137.398 -10.703 134.853 -20.4491L-107.031 42.7352ZM-31.3071 -103.427C-30.6351 -103.678 -29.9616 -103.922 -29.2867 -104.159L53.7811 131.637C54.537 131.37 55.2914 131.097 56.044 130.816L-31.3071 -103.427ZM-60.8141 -87.3081C-51.8703 -94.0092 -41.9454 -99.4598 -31.3071 -103.427L56.044 130.816C67.9582 126.373 79.0727 120.269 89.0887 112.765L-60.8141 -87.3081ZM-118.781 -13.0312C-120.428 -2.492 -120.785 8.28848 -119.788 19.0658L129.149 -3.96039C130.066 5.94937 129.737 15.8627 128.223 25.5542L-118.781 -13.0312ZM135.75 33.0268C138.252 17.0049 137.759 0.533934 134.164 -15.5218L-109.797 39.0925C-113.103 24.3282 -113.557 9.18234 -111.256 -5.54976L135.75 33.0268ZM77.778 107.311C68.2062 114.482 57.5795 120.17 46.2536 124.16L-36.8116 -111.637C-49.4952 -107.169 -61.3964 -100.799 -72.1162 -92.768L77.778 107.311ZM66.6979 124.272C81.4634 117.116 94.6752 107.268 105.692 95.3084L-78.1874 -74.0682C-68.0575 -85.0655 -55.909 -94.1206 -42.3311 -100.701L66.6979 124.272ZM12.9079 5.96805L-30.6662 -240.205L-276.84 -196.631L-233.265 49.5423L12.9079 5.96805ZM10.5775 6.8231L226.516 -119.155L100.537 -335.094L-115.401 -209.115L10.5775 6.8231ZM11.4997 8.40395L137.478 224.342L353.417 98.3639L227.438 -117.575L11.4997 8.40395ZM13.2269 7.77025L-232.946 51.3445L-189.372 297.518L56.801 253.944L13.2269 7.77025ZM5.14507 12.3041L-162.924 197.379L22.1512 365.448L190.22 180.373L5.14507 12.3041ZM4.26567 2.79676L-194.9 -148.31L4.26567 2.79676ZM16.1933 10.2883L238.793 124.085L238.793 124.084L16.1933 10.2883ZM7.24717 13.6244L-224.514 -80.1138L-318.252 151.647L-86.4911 245.385L7.24717 13.6244ZM7.93341 11.9277L101.672 -219.833L-130.089 -313.572L-223.828 -81.8105L7.93341 11.9277ZM11.729 11.9797L99.0801 246.223L99.0802 246.223L11.729 11.9797ZM14.5637 9.45521L237.163 123.251L237.163 123.251L14.5637 9.45521ZM5.72372 3.90298L204.889 155.01V155.01L5.72372 3.90298ZM6.37548 10.9492L191.451 179.018L359.52 -6.05689L174.445 -174.126L6.37548 10.9492ZM11.7959 18.1885L178.902 204.133L364.847 37.0268L197.741 -148.918L11.7959 18.1885ZM1.49451 8.58264L198.649 162.304L198.649 162.304L1.49451 8.58264ZM5.89295 5.95853L-35.7311 -240.552L-35.7311 -240.552L5.89295 5.95853ZM10.9091 6.99295L-124.841 216.926L-124.841 216.926L10.9091 6.99295ZM13.3223 16.2309L-103.401 237.309L117.678 354.032L234.401 132.954L13.3223 16.2309ZM11.7038 15.3764L-209.375 -101.347L-326.098 119.732L-105.019 236.455L11.7038 15.3764ZM12.1398 11.6056L-229.744 74.79L-229.743 74.7922L12.1398 11.6056ZM6.19767 7.76319L-35.4264 -238.747L6.19767 7.76319ZM2.93784 9.708L200.092 163.429H200.092L2.93784 9.708ZM10.5726 16.8272L196.517 -150.279L29.4109 -336.224L-156.534 -169.117L10.5726 16.8272ZM3.216 9.37995L239.496 -72.3019L102.789 -467.75L-180.671 -159.988L3.216 9.37995ZM4.78477 8.21467L-104.255 -216.753L-282.426 -130.395L-239.179 62.8202L4.78477 8.21467ZM4.86871 8.54029L-235.088 78.6875L4.86871 8.54029ZM12.1834 11.7854L121.213 236.758L299.4 150.401L256.146 -42.8264L12.1834 11.7854ZM12.2472 13.7385L259.253 52.315L323.816 -361.083L-70.8206 -222.057L12.2472 13.7385ZM14.1373 12.7283L-135.766 -187.344L-239.453 -109.657L-235.761 19.8522L14.1373 12.7283ZM2.83091 7.2717L152.725 207.351L256.428 129.66L252.729 0.13561L2.83091 7.2717ZM4.72101 6.26148L-242.283 -32.3239L-306.863 381.083L87.786 242.058L4.72101 6.26148ZM13.7522 10.6201L-222.531 92.2902L-85.8448 487.745L197.631 179.997L13.7522 10.6201ZM56.482 252.141C-3.31179 262.725 -64.9013 250.532 -116.152 217.964L152.016 -204.038C97.7824 -238.502 32.608 -251.405 -30.6662 -240.205L56.482 252.141ZM-116.152 217.964C-167.403 185.396 -204.598 134.815 -220.41 76.186L262.342 -54.0081C245.61 -116.049 206.25 -169.575 152.016 -204.038L-116.152 217.964ZM-220.41 76.186C-236.221 17.5574 -229.503 -44.867 -201.577 -98.7881L242.414 131.151C271.965 74.091 279.074 8.03307 262.342 -54.0081L-220.41 76.186ZM-201.577 -98.7881C-173.652 -152.709 -126.545 -194.217 -69.5381 -215.133L102.689 254.268C163.014 232.134 212.863 188.21 242.414 131.151L-201.577 -98.7881ZM-69.5381 -215.133C-12.531 -236.05 50.2427 -234.858 106.415 -211.793L-83.5055 250.733C-24.0637 275.141 42.3637 276.402 102.689 254.268L-69.5381 -215.133ZM106.415 -211.793C162.587 -188.728 208.084 -145.462 233.943 -90.5196L-218.456 122.401C-191.093 180.541 -142.947 226.325 -83.5055 250.733L106.415 -211.793ZM233.943 -90.5196C259.801 -35.5773 264.146 27.0571 246.12 85.0432L-231.342 -63.3809C-250.417 -2.01961 -245.82 64.2606 -218.456 122.401L233.943 -90.5196ZM246.12 85.0432C228.094 143.029 189.006 192.162 136.556 222.762L-115.401 -209.115C-170.904 -176.735 -212.268 -124.742 -231.342 -63.3809L246.12 85.0432ZM-205.361 132.802L-204.439 134.382L227.438 -117.575L226.516 -119.155L-205.361 132.802ZM-114.479 -207.534C-169.586 -175.385 -210.656 -123.762 -229.595 -62.8376L247.868 85.5865C229.706 144.01 190.323 193.513 137.478 224.342L-114.479 -207.534ZM-229.595 -62.8376C-248.534 -1.91317 -243.969 63.8951 -216.8 121.621L235.599 -91.2989C261.652 -35.9428 266.029 27.1636 247.868 85.5865L-229.595 -62.8376ZM-216.8 121.621C-189.632 179.348 -141.829 224.806 -82.8103 249.04L107.11 -213.486C163.705 -190.247 209.545 -146.655 235.599 -91.2989L-216.8 121.621ZM-82.8103 249.04C-23.7917 273.274 42.1628 274.526 102.059 252.55L-70.1686 -216.852C-12.7319 -237.926 50.5147 -236.725 107.11 -213.486L-82.8103 249.04ZM102.059 252.55C161.955 230.574 211.448 186.962 240.789 130.309L-203.203 -99.6297C-175.067 -153.957 -127.605 -195.778 -70.1686 -216.852L102.059 252.55ZM240.789 130.309C270.129 73.6556 277.188 8.06794 260.575 -53.5316L-222.177 76.6626C-238.107 17.5923 -231.338 -45.3024 -203.203 -99.6297L240.789 130.309ZM260.575 -53.5316C243.962 -115.131 204.882 -168.275 151.035 -202.494L-117.134 219.508C-168.77 186.695 -206.246 135.733 -222.177 76.6626L260.575 -53.5316ZM151.035 -202.494C97.187 -236.712 32.4765 -249.523 -30.3472 -238.403L56.801 253.944C-3.44333 264.607 -65.4969 252.322 -117.134 219.508L151.035 -202.494ZM259.4 -35.804L259.081 -37.6062L-233.265 49.5423L-232.946 51.3445L259.4 -35.804ZM203.431 153.903C166.728 202.279 113.239 235.155 53.5018 246.055L-36.2436 -245.825C-99.4578 -234.291 -156.06 -199.502 -194.9 -148.31L203.431 153.903ZM53.5018 246.055C-6.23526 256.954 -67.8883 245.086 -119.31 212.789L146.627 -210.623C92.2122 -244.8 26.9706 -257.359 -36.2436 -245.825L53.5018 246.055ZM-119.31 212.789C-170.732 180.492 -208.194 130.108 -224.315 71.5632L257.744 -61.177C240.684 -123.129 201.042 -176.446 146.627 -210.623L-119.31 212.789ZM-224.315 71.5632C-240.435 13.019 -234.046 -49.44 -206.406 -103.508L238.793 124.084C268.042 66.8694 274.803 0.774916 257.744 -61.177L-224.315 71.5632ZM239.008 107.363L239.694 105.666L-223.828 -81.8105L-224.514 -80.1138L239.008 107.363ZM-85.8048 243.689C-26.6591 267.611 39.3011 268.515 99.0801 246.223L-75.6222 -222.263C-18.2976 -243.64 44.9544 -242.773 101.672 -219.833L-85.8048 243.689ZM237.163 123.251C266.204 66.4439 272.917 0.819912 255.979 -60.6911L-226.079 72.0491C-242.321 13.0637 -235.884 -49.8659 -208.036 -104.341L237.163 123.251ZM255.979 -60.6911C239.041 -122.202 199.681 -175.139 145.654 -209.073L-120.284 214.339C-172.093 181.798 -209.837 131.034 -226.079 72.0491L255.979 -60.6911ZM145.654 -209.073C91.6262 -243.007 26.849 -255.476 -35.9151 -244.025L53.8303 247.855C-6.35678 258.837 -68.4743 246.879 -120.284 214.339L145.654 -209.073ZM-35.9151 -244.025C-98.6793 -232.573 -154.879 -198.031 -193.441 -147.204L204.889 155.01C167.91 203.75 114.017 236.874 53.8303 247.855L-35.9151 -244.025ZM-178.7 -157.12L-179.93 -155.765L190.22 180.373L191.451 179.018L-178.7 -157.12ZM-155.311 -167.756C-110.146 -208.345 -51.4177 -230.548 9.30292 -229.99L4.70729 269.989C68.9622 270.58 131.109 247.085 178.902 204.133L-155.311 -167.756ZM9.30292 -229.99C70.0236 -229.432 128.334 -206.153 172.745 -164.741L-168.248 200.942C-121.252 244.765 -59.5477 269.399 4.70729 269.989L9.30292 -229.99ZM172.745 -164.741C217.156 -123.329 244.447 -66.7854 249.242 -6.25174L-249.197 33.2281C-244.124 97.2852 -215.244 157.12 -168.248 200.942L172.745 -164.741ZM249.242 -6.25174C254.036 54.2819 235.987 114.416 198.649 162.304L-195.66 -145.138C-235.171 -94.4637 -254.271 -30.829 -249.197 33.2281L249.242 -6.25174ZM47.517 252.469C-12.3586 262.579 -73.8497 249.899 -124.841 216.926L146.659 -202.94C92.7 -237.832 27.6297 -251.251 -35.7311 -240.552L47.517 252.469ZM130.045 -204.848L128.427 -205.702L-105.019 236.455L-103.401 237.309L130.045 -204.848ZM254.024 -51.5788C237.899 -113.308 199.241 -166.76 145.666 -201.403L-125.835 218.463C-177.21 185.242 -214.281 133.984 -229.744 74.79L254.024 -51.5788ZM145.666 -201.403C92.0904 -236.047 27.4833 -249.37 -35.4264 -238.747L47.8217 254.274C-12.505 264.46 -74.4594 251.684 -125.835 218.463L145.666 -201.403ZM-194.216 -144.013C-233.446 -93.6992 -252.411 -30.5175 -247.373 33.0836L251.066 -6.39625C255.897 54.5935 237.711 115.181 200.092 163.429L-194.216 -144.013ZM-247.373 33.0836C-242.335 96.6846 -213.661 156.093 -167 199.604L173.993 -166.079C218.738 -124.355 246.235 -67.3859 251.066 -6.39625L-247.373 33.0836ZM-167 199.604C-120.338 243.115 -59.0734 267.573 4.72412 268.159L9.31975 -231.82C70.4979 -231.258 129.247 -207.804 173.993 -166.079L-167 199.604ZM4.72412 268.159C68.5217 268.745 130.226 245.418 177.679 202.772L-156.534 -169.117C-111.029 -210.012 -51.8584 -232.382 9.31975 -231.82L4.72412 268.159ZM-175.372 183.934L-174.149 185.295L197.741 -148.918L196.517 -150.279L-175.372 183.934ZM-180.671 -159.988C-185.39 -154.865 -189.91 -149.537 -194.216 -144.013L200.092 163.429C195.962 168.726 191.628 173.835 187.103 178.748L-180.671 -159.988ZM173.214 -172.771C203.622 -145.158 226.284 -110.519 239.496 -72.3019L-233.064 91.0618C-219.083 131.505 -195.101 168.159 -162.924 197.379L173.214 -172.771ZM-35.4264 -238.747C-59.4844 -234.685 -82.6435 -227.228 -104.255 -216.753L113.824 233.182C93.1003 243.227 70.8917 250.378 47.8217 254.274L-35.4264 -238.747ZM-239.179 62.8202C-237.983 68.1611 -236.619 73.4527 -235.088 78.6875L244.826 -61.6069C246.293 -56.587 247.602 -51.5125 248.748 -46.3909L-239.179 62.8202ZM-235.088 78.6875C-221.987 123.503 -196.736 164.202 -161.694 196.024L174.445 -174.126C208.049 -143.61 232.263 -104.582 244.826 -61.6069L-235.088 78.6875ZM-229.743 74.7922C-230.473 71.9989 -231.151 69.2001 -231.779 66.3971L256.146 -42.8264C255.491 -45.7495 254.784 -48.6682 254.023 -51.581L-229.743 74.7922ZM-96.8465 -213.187C-89.9394 -216.534 -82.8576 -219.565 -75.6223 -222.263L99.0802 246.223C106.626 243.409 114.011 240.248 121.213 236.758L-96.8465 -213.187ZM-86.4911 245.385C-28.3707 268.893 36.2806 270.332 95.315 249.534L-70.8206 -222.057C-15.0332 -241.711 46.0619 -240.351 100.985 -218.137L-86.4911 245.385ZM-234.759 -24.8379C-230.619 -51.3414 -222.113 -77.2197 -209.375 -101.347L232.782 132.099C246.066 106.939 254.936 79.9535 259.253 52.315L-234.759 -24.8379ZM234.401 132.954C255.247 93.4713 265.289 49.5627 264.036 5.60438L-235.761 19.8522C-236.945 -21.6873 -227.456 -63.1809 -207.756 -100.492L234.401 132.954ZM164.04 212.801C195.128 189.509 220.811 159.259 238.793 124.085L-206.406 -103.508C-189.413 -136.748 -165.143 -165.334 -135.766 -187.344L164.04 212.801ZM-194.9 -148.31C-230.431 -101.478 -248.736 -44.0318 -247.067 14.4078L252.729 0.13561C254.306 55.3612 237.008 109.647 203.431 153.903L-194.9 -148.31ZM-147.063 -192.808C-165.165 -179.246 -181.539 -163.249 -195.66 -145.138L198.649 162.304C185.305 179.417 169.831 194.536 152.725 207.351L-147.063 -192.808ZM87.786 242.058C74.7581 246.648 61.2888 250.144 47.517 252.469L-35.7311 -240.552C-50.3051 -238.091 -64.5582 -234.392 -78.344 -229.535L87.786 242.058ZM-124.841 216.926C-170.561 187.362 -204.861 143.413 -222.531 92.2902L250.036 -71.0501C231.337 -125.148 195.04 -171.655 146.659 -202.94L-124.841 216.926ZM197.631 179.997C213.201 163.094 226.54 144.031 237.163 123.251L-208.036 -104.341C-197.849 -124.267 -185.058 -142.547 -170.127 -158.757L197.631 179.997ZM-193.441 -147.204C-219.181 -113.277 -235.814 -73.7385 -242.283 -32.3239L251.725 44.8469C245.522 84.5604 229.572 122.476 204.889 155.01L-193.441 -147.204Z" fill="#25CED1" mask="url(#path-2-inside-1_11_163)"/>
<path d="M4.78516 8.22266C4.16016 8.36328 3.48307 9.04297 3.22266 9.375C3.75391 8.78125 4.57682 8.70443 4.92187 8.73047C4.875 8.60547 4.8112 8.33984 4.78516 8.22266Z" fill="#1B1B1B" fill-opacity="0.1"/>
<path d="M10.6008 9.04427C10.1811 8.56024 9.40011 8.14598 8.98437 8.07369C9.75884 8.26071 10.0778 9.08874 10.2181 9.40503C10.3061 9.30458 10.5099 9.12267 10.6008 9.04427Z" fill="#1B1B1B" fill-opacity="0.1"/>
<path d="M16.8359 8.4375C16.3008 8.08528 15.0781 7.77344 15.0781 7.77344C15.0781 7.77344 16.4648 8.53516 16.6992 9.00391C16.7383 8.86719 16.7969 8.59375 16.8359 8.4375Z" fill="#1B1B1B" fill-opacity="0.1"/>
<path d="M14.1211 12.7344C14.1076 12.7604 14.0916 12.7858 14.0734 12.8106C13.5569 13.6092 12.4386 14.5577 12.0508 14.5898C12.1094 14.4141 12.2266 13.9844 12.2461 13.7305C12.8942 13.4612 13.7781 13.2128 14.0734 12.8106C14.0899 12.785 14.1058 12.7596 14.1211 12.7344Z" fill="#1B1B1B" fill-opacity="0.1"/>
<path d="M10.5836 19.0613C9.96708 18.5795 9.00391 17.793 9.00391 17.793C9.00391 17.793 9.47266 18.6133 10.1367 19.2969C10.2539 19.2383 10.4297 19.1602 10.5836 19.0613Z" fill="#1B1B1B" fill-opacity="0.1"/>
</g>
<defs>
<clipPath id="clip0_11_163">
<rect width="21.2103" height="20" fill="white"/>
</clipPath>
</defs>
</svg>
