<svg width="136" height="128" viewBox="0 0 136 128" fill="none" xmlns="http://www.w3.org/2000/svg">
<mask id="path-1-inside-1_11_152" fill="white">
<path d="M82.6104 38.1955C93.7477 36.2242 105.219 38.4953 114.766 44.5615C124.312 50.6277 131.24 60.049 134.185 70.9693C137.13 81.8895 135.878 93.5168 130.677 103.56C125.476 113.604 116.701 121.335 106.083 125.231C95.4649 129.127 83.7726 128.905 73.3099 124.609C62.8472 120.312 54.3727 112.254 49.5563 102.02C44.7399 91.7865 43.9307 80.1201 47.2882 69.3195C50.6456 58.5189 57.9263 49.3673 67.6957 43.6679L73.5982 53.7853C66.3578 58.0094 60.9618 64.7919 58.4735 72.7966C55.9852 80.8012 56.5849 89.4476 60.1545 97.0321C63.7241 104.617 70.0048 110.589 77.7591 113.773C85.5133 116.957 94.1789 117.122 102.048 114.234C109.918 111.347 116.421 105.617 120.276 98.1735C124.131 90.73 125.058 82.1126 122.875 74.0193C120.693 65.9259 115.558 58.9435 108.483 54.4476C101.408 49.9518 92.9062 48.2685 84.652 49.7296L82.6104 38.1955Z"/>
<path d="M30.6225 52.5739C26.1614 53.771 22.0703 58.0445 20.5824 60.0317C20.7309 59.8501 20.9014 59.67 21.0907 59.4919C23.8454 56.6307 27.076 54.2928 30.6225 52.5739Z"/>
<path fill-rule="evenodd" clip-rule="evenodd" d="M32.9285 78.7461C27.2656 73.6036 23.0442 67.1529 20.5824 60.0317C20.7309 59.8501 20.9014 59.67 21.0907 59.4919C23.4324 57.2882 28.6634 55.3795 31.1598 54.6579C32.8815 60.5475 36.1997 65.8943 40.8031 70.0747L32.9285 78.7461ZM30.6225 52.5739C33.4616 51.1978 36.5032 50.2183 39.6651 49.6844C47.9306 48.2887 56.4191 50.0392 63.4582 54.5909C70.4973 59.1426 75.5765 66.1655 77.695 74.2759C77.7949 74.6583 77.8879 75.0419 77.974 75.4263C77.0282 75.8847 76.0578 76.3001 75.0653 76.6702C67.2111 79.599 58.5448 79.4803 50.7739 76.3372L46.3819 87.196C56.6119 91.3336 67.9918 91.5869 78.382 87.9266C77.8148 91.5584 76.6498 95.1026 74.9042 98.4088L85.2625 103.878C88.9311 96.9292 90.6994 89.2012 90.4788 81.4612C95.9531 77.3596 100.472 72.0356 103.637 65.8451C108.785 55.7743 109.975 44.1406 106.973 33.236C103.97 22.3315 96.9924 12.9469 87.4145 6.93115C77.8366 0.915438 66.353 -1.29513 55.2263 0.734983C44.0996 2.7651 34.1366 8.88868 27.3003 17.8992C21.0465 26.142 17.8241 36.2538 18.1178 46.5389C14.9324 48.9253 12.0512 51.74 9.56484 54.9289C2.61025 63.8485 -0.75171 75.0492 0.141356 86.3243C1.03442 97.5994 6.11775 108.131 14.3898 115.845C22.6618 123.558 33.5228 127.894 44.8327 127.998C56.1426 128.102 67.0814 123.967 75.4938 116.406L67.6644 107.694C61.4296 113.297 53.3225 116.362 44.9404 116.285C36.5582 116.208 28.5088 112.995 22.3781 107.278C16.2474 101.561 12.48 93.7558 11.8181 85.3994C11.1562 77.0431 13.6479 68.7418 18.8022 62.1312C19.3686 61.4048 19.9626 60.7046 20.5824 60.0317C22.0703 58.0445 26.1614 53.771 30.6225 52.5739ZM37.7149 38.1346C35.1479 38.568 32.6397 39.2191 30.2145 40.0735C31.0648 34.6301 33.2504 29.4359 36.6318 24.9791C41.6984 18.3011 49.0823 13.7627 57.3287 12.2581C65.5751 10.7535 74.086 12.3918 81.1845 16.8503C88.283 21.3087 93.4544 28.264 95.6798 36.3457C97.9052 44.4274 97.0232 53.0496 93.2076 60.5133C91.8114 63.2445 90.0594 65.7481 88.0142 67.9684C84.7233 58.4474 78.3337 50.2611 69.8186 44.7549C60.3208 38.6133 48.8674 36.2514 37.7149 38.1346Z"/>
<path d="M31.1598 54.6579C30.9588 53.9703 30.7795 53.2753 30.6225 52.5739C27.076 54.2928 23.8454 56.6307 21.0907 59.4919C23.4324 57.2882 28.6634 55.3795 31.1598 54.6579Z"/>
</mask>
<path d="M18.2918 49.4162L-106.177 60.9293L18.2918 49.4162ZM79.158 87.6452L35.4824 -29.4763L79.158 87.6452ZM29.9553 48.3374L154.424 36.8243L29.9553 48.3374ZM89.0281 71.3155L209.97 39.7233V39.7233L89.0281 71.3155ZM20.5824 60.0317L-97.5575 100.873L-29.2044 298.596L112.526 144.715L20.5824 60.0317ZM31.1598 54.6579L65.8724 174.741L182.512 141.024L152.202 23.4535L31.1598 54.6579ZM77.974 75.4263L23.4595 -37.06L-65.6355 6.11834L-44.0068 102.733L77.974 75.4263ZM78.382 87.9266L-45.1208 68.6383L-77.4024 275.337L119.916 205.825L78.382 87.9266ZM90.4788 81.4612L165.43 181.498L217.274 142.654L215.428 77.8992L90.4788 81.4612ZM18.1178 46.5389L-56.8293 -53.5008L-108.681 -14.6551L-106.831 50.1069L18.1178 46.5389ZM30.2145 40.0735L153.717 59.3662L186.007 -147.337L-11.3182 -77.825L30.2145 40.0735ZM88.0142 67.9684L206.156 27.1333L137.813 -170.594L-3.92544 -16.7199L88.0142 67.9684ZM138.722 19.1908C140.8 25.2012 142.167 31.4829 142.76 37.9031L-106.177 60.9293C-104.909 74.6405 -101.992 88.0457 -97.5575 100.873L138.722 19.1908ZM-94.5133 59.8505C-93.8875 66.6161 -92.8303 73.3044 -91.3593 79.8766L152.604 25.2711C153.453 29.0642 154.063 32.923 154.424 36.8243L-94.5133 59.8505ZM120.641 134.954C115.665 141.599 110.317 147.214 104.331 152.184C99.2638 156.39 85.2584 167.335 63.0196 173.303L-1.7746 -68.1549C-28.4744 -60.9901 -46.756 -47.3099 -55.3557 -40.1707C-64.8751 -32.268 -73.0121 -23.523 -79.476 -14.8904L120.641 134.954ZM-90.42 83.7783L-89.8827 85.8623L152.202 23.4535L151.665 21.3695L-90.42 83.7783ZM117.317 139.198C113.509 143.852 109.853 147.608 106.757 150.521L-64.5752 -31.5376C-68.0498 -28.2677 -72.0472 -24.1513 -76.1524 -19.1351L117.317 139.198ZM111.139 146.188C103.621 153.998 94.8095 160.372 85.1424 165.058L-23.8974 -59.9098C-40.6575 -51.7863 -55.9297 -40.7363 -68.9577 -27.2046L111.139 146.188ZM-3.55286 -65.4256C-9.50207 -63.7058 -16.7442 -61.2141 -24.3416 -57.866C-28.824 -55.8906 -47.1563 -47.9301 -64.575 -31.5377L106.756 150.521C97.8845 158.871 89.8617 163.798 86.2089 165.925C81.9523 168.404 78.4939 170.015 76.4761 170.904C72.7037 172.567 69.3253 173.743 65.8724 174.741L-3.55286 -65.4256ZM-68.9577 -27.2046C-69.7677 -26.3634 -70.5689 -25.5125 -71.3614 -24.6521L112.526 144.715C112.069 145.212 111.606 145.703 111.139 146.188L-68.9577 -27.2046ZM-30.1277 108.804C-30.7973 106.866 -31.3935 104.9 -31.9138 102.908L209.97 39.7233C208.858 35.4673 207.585 31.2678 206.156 27.1333L-30.1277 108.804ZM142.76 37.9031C142.917 39.5918 143.019 41.282 143.067 42.9708L-106.831 50.1069C-106.728 53.7119 -106.511 57.3212 -106.177 60.9293L142.76 37.9031ZM-31.9138 102.908C-33.4506 97.0244 -34.2994 91.022 -34.4705 85.0232L215.428 77.8992C215.063 65.0979 213.252 52.2882 209.97 39.7233L-31.9138 102.908ZM35.4824 -29.4763C35.9367 -29.6457 36.392 -29.8107 36.8481 -29.9714L119.916 205.825C120.891 205.481 121.863 205.129 122.834 204.767L35.4824 -29.4763ZM15.5274 -18.5752C21.5761 -23.1072 28.2894 -26.7939 35.4824 -29.4763L122.834 204.767C138.193 199.039 152.519 191.171 165.43 181.498L15.5274 -18.5752ZM-93.2877 20.7808C-95.2917 33.609 -95.7269 46.7307 -94.5133 59.8505L154.424 36.8243C155.124 44.3916 154.873 51.9637 153.717 59.3662L-93.2877 20.7808ZM201.885 107.215C204.931 87.7106 204.33 67.6618 199.955 48.1192L-44.0068 102.733C-46.5315 91.4561 -46.8778 79.888 -45.1208 68.6383L201.885 107.215ZM93.0649 146.579C86.5928 151.427 79.4073 155.273 71.7471 157.972L-11.3182 -77.825C-27.6674 -72.0655 -43.0098 -63.854 -56.8293 -53.5008L93.0649 146.579ZM132.488 187.913C150.46 179.203 166.543 167.216 179.954 152.657L-3.92544 -16.7199C3.81007 -25.1177 13.0878 -32.0335 23.4595 -37.06L132.488 187.913ZM82.6104 38.1955L39.0364 -207.978L-207.137 -164.404L-163.563 81.7698L82.6104 38.1955ZM67.6957 43.6679L283.634 -82.3107L157.656 -298.249L-58.2828 -172.271L67.6957 43.6679ZM73.5982 53.7853L199.577 269.724L415.515 143.745L289.537 -72.1932L73.5982 53.7853ZM84.652 49.7296L-161.521 93.3038L-117.947 339.477L128.226 295.903L84.652 49.7296ZM32.9285 78.7461L-135.141 263.821L49.9346 431.89L218.004 246.815L32.9285 78.7461ZM27.3003 17.8992L-171.865 -133.207L27.3003 17.8992ZM103.637 65.8451L326.236 179.641L326.236 179.641L103.637 65.8451ZM46.3819 87.196L-185.379 -6.54224L-279.117 225.219L-47.3564 318.957L46.3819 87.196ZM50.7739 76.3372L144.512 -155.424L-87.2489 -249.162L-180.987 -17.401L50.7739 76.3372ZM75.0653 76.6702L162.416 310.913L162.417 310.913L75.0653 76.6702ZM93.2076 60.5133L315.807 174.31L315.807 174.309L93.2076 60.5133ZM36.6318 24.9791L235.797 176.086L235.797 176.086L36.6318 24.9791ZM40.8031 70.0747L225.878 238.144L393.947 53.0687L208.872 -115L40.8031 70.0747ZM75.4938 116.406L242.6 302.351L428.545 135.245L261.439 -50.7L75.4938 116.406ZM44.8327 127.998L47.1305 -121.991L44.8327 127.998ZM9.56484 54.9289L206.719 208.65L206.719 208.65L9.56484 54.9289ZM37.7149 38.1346L-3.90917 -208.376H-3.9092L37.7149 38.1346ZM69.8186 44.7549L-65.9316 254.688L-65.9316 254.688L69.8186 44.7549ZM85.2625 103.878L-31.4606 324.956L189.618 441.679L306.341 220.601L85.2625 103.878ZM74.9042 98.4088L-146.174 -18.3142L-262.897 202.764L-41.8188 319.487L74.9042 98.4088ZM77.695 74.2759L-164.189 137.46L-164.188 137.462L77.695 74.2759ZM39.6651 49.6844L-1.95895 -196.826L39.6651 49.6844ZM18.8022 62.1312L215.956 215.852L18.8022 62.1312ZM67.6644 107.694L253.609 -59.4122L86.5027 -245.357L-99.4421 -78.2505L67.6644 107.694ZM20.5824 60.0317L256.862 -21.6501L120.156 -417.098L-163.305 -109.336L20.5824 60.0317ZM30.6225 52.5739L-78.4172 -172.394L-256.588 -86.0358L-213.341 107.179L30.6225 52.5739ZM31.1598 54.6579L-208.797 124.805L31.1598 54.6579ZM77.974 75.4263L187.004 300.398L365.191 214.042L321.936 20.8145L77.974 75.4263ZM78.382 87.9266L325.388 126.503L389.951 -286.895L-4.68577 -147.869L78.382 87.9266ZM90.4788 81.4612L-59.4241 -118.612L-163.112 -40.9245L-159.42 88.5851L90.4788 81.4612ZM18.1178 46.5389L168.012 246.618L271.715 168.927L268.016 39.4028L18.1178 46.5389ZM30.2145 40.0735L-216.79 1.48808L-281.37 414.895L113.279 275.87L30.2145 40.0735ZM88.0142 67.9684L-148.27 149.639L-11.5829 545.093L271.893 237.345L88.0142 67.9684ZM126.185 284.369C75.7878 293.289 23.8776 283.012 -19.3186 255.563L248.85 -166.44C186.561 -206.022 111.708 -220.841 39.0364 -207.978L126.185 284.369ZM-19.3186 255.563C-62.5148 228.113 -93.8646 185.481 -107.191 136.066L375.561 5.87217C356.344 -65.3829 311.138 -126.857 248.85 -166.44L-19.3186 255.563ZM-107.191 136.066C-120.518 86.6517 -114.855 34.0378 -91.3187 -11.4091L352.673 218.53C386.612 152.996 394.778 77.1273 375.561 5.87217L-107.191 136.066ZM-91.3187 -11.4091C-67.7821 -56.8562 -28.0785 -91.8407 19.9695 -109.47L192.197 359.932C261.481 334.511 318.733 284.063 352.673 218.53L-91.3187 -11.4091ZM19.9695 -109.47C68.0175 -127.099 120.926 -126.095 168.27 -106.654L-21.6502 355.872C46.6194 383.904 122.912 385.353 192.197 359.932L19.9695 -109.47ZM168.27 -106.654C215.614 -87.2141 253.961 -50.7478 275.756 -4.44011L-176.643 208.48C-145.216 275.255 -89.9199 327.839 -21.6502 355.872L168.27 -106.654ZM275.756 -4.44011C297.55 41.8675 301.212 94.6584 286.019 143.532L-191.443 -4.89258C-213.351 65.5817 -208.071 141.705 -176.643 208.48L275.756 -4.44011ZM286.019 143.532C270.827 192.405 237.881 233.816 193.674 259.606L-58.2828 -172.271C-122.029 -135.081 -169.535 -75.3669 -191.443 -4.89258L286.019 143.532ZM-148.243 169.646L-142.34 179.764L289.537 -72.1932L283.634 -82.3107L-148.243 169.646ZM-52.3803 -162.153C-113.597 -126.439 -159.219 -69.094 -180.258 -1.41551L297.205 147.009C281.143 198.678 246.313 242.458 199.577 269.724L-52.3803 -162.153ZM-180.258 -1.41551C-201.296 66.2629 -196.226 139.367 -166.045 203.492L286.354 -9.42813C309.395 39.5286 313.267 95.3396 297.205 147.009L-180.258 -1.41551ZM-166.045 203.492C-135.864 267.618 -82.7622 318.116 -17.2011 345.036L172.719 -117.49C222.772 -96.9374 263.313 -58.3849 286.354 -9.42813L-166.045 203.492ZM-17.2011 345.036C48.3601 371.957 121.626 373.348 188.162 348.935L15.9348 -120.466C66.7315 -139.104 122.667 -138.042 172.719 -117.49L-17.2011 345.036ZM188.162 348.935C254.698 324.523 309.678 276.077 342.271 213.143L-101.72 -16.7958C-76.8369 -64.8427 -34.862 -101.829 15.9348 -120.466L188.162 348.935ZM342.271 213.143C374.864 150.209 382.706 77.3505 364.251 8.92219L-118.501 139.116C-132.59 86.8748 -126.603 31.251 -101.72 -16.7958L342.271 213.143ZM364.251 8.92219C345.797 -59.506 302.384 -118.542 242.567 -156.553L-25.6009 265.449C-71.2682 236.429 -104.411 191.358 -118.501 139.116L364.251 8.92219ZM242.567 -156.553C182.75 -194.565 110.866 -208.797 41.0779 -196.444L128.226 295.903C74.9463 305.334 20.0664 294.469 -25.6009 265.449L242.567 -156.553ZM330.825 6.15535L328.784 -5.37869L-163.563 81.7698L-161.521 93.3038L330.825 6.15535ZM226.465 169.006C195.531 209.779 150.448 237.489 100.099 246.675L10.3536 -245.205C-62.2488 -231.958 -127.258 -192.002 -171.865 -133.207L226.465 169.006ZM100.099 246.675C49.7501 255.861 -2.21367 245.858 -45.5541 218.637L220.383 -204.775C157.887 -244.027 82.9559 -258.452 10.3536 -245.205L100.099 246.675ZM-45.5541 218.637C-88.8946 191.416 -120.469 148.95 -134.056 99.6061L348.002 -33.1341C328.409 -104.287 282.879 -165.522 220.383 -204.775L-45.5541 218.637ZM-134.056 99.6061C-147.644 50.2626 -142.259 -2.38042 -118.962 -47.9511L326.236 179.641C359.829 113.929 367.595 38.0185 348.002 -33.1341L-134.056 99.6061ZM278.143 180.934L282.535 170.075L-180.987 -17.401L-185.379 -6.54224L278.143 180.934ZM-42.9644 308.098C22.7381 334.672 96.0105 335.676 162.416 310.913L-12.2858 -157.573C38.4117 -176.478 94.3515 -175.712 144.512 -155.424L-42.9644 308.098ZM315.807 174.309C348.067 111.204 355.524 38.3056 336.709 -30.0244L-145.349 102.716C-159.714 50.5493 -154.021 -5.10532 -129.392 -53.2828L315.807 174.309ZM336.709 -30.0244C317.893 -98.3542 274.17 -157.16 214.153 -194.856L-51.7841 228.556C-97.6041 199.777 -130.985 154.882 -145.349 102.716L336.709 -30.0244ZM214.153 -194.856C154.136 -232.551 82.178 -246.403 12.456 -233.682L102.201 258.198C48.9722 267.91 -5.96425 257.335 -51.7841 228.556L214.153 -194.856ZM12.456 -233.682C-57.266 -220.961 -119.696 -182.589 -162.533 -126.128L235.797 176.086C203.093 219.191 155.431 248.486 102.201 258.198L12.456 -233.682ZM-144.272 -97.9943L-152.147 -89.3229L218.004 246.815L225.878 238.144L-144.272 -97.9943ZM-91.6126 -69.5384C-53.5458 -103.748 -4.04732 -122.462 47.1305 -121.991L42.5349 377.988C116.333 378.666 187.709 351.682 242.6 302.351L-91.6126 -69.5384ZM47.1305 -121.991C98.3084 -121.521 147.455 -101.901 184.886 -66.9969L-156.106 298.686C-102.131 349.017 -31.2629 377.309 42.5349 377.988L47.1305 -121.991ZM184.886 -66.9969C222.317 -32.0929 245.32 15.5641 249.361 66.5844L-249.078 106.064C-243.251 179.635 -210.082 248.355 -156.106 298.686L184.886 -66.9969ZM249.361 66.5844C253.402 117.605 238.189 168.289 206.719 208.65L-187.589 -98.7923C-232.968 -40.5916 -254.905 32.4937 -249.078 106.064L249.361 66.5844ZM79.3389 284.645C28.8732 293.166 -22.954 282.479 -65.9316 254.688L205.569 -165.178C143.596 -205.252 68.8616 -220.664 -3.90917 -208.376L79.3389 284.645ZM201.986 -117.201L191.627 -122.67L-41.8188 319.487L-31.4606 324.956L201.986 -117.201ZM319.579 11.0915C301.667 -57.4806 258.723 -116.858 199.208 -155.342L-72.2919 264.524C-117.728 235.143 -150.514 189.812 -164.189 137.46L319.579 11.0915ZM199.208 -155.342C139.694 -193.826 67.9248 -208.626 -1.95895 -196.826L81.2892 296.195C27.9364 305.204 -26.8557 293.905 -72.2919 264.524L199.208 -155.342ZM-178.352 -91.5899C-221.931 -35.6983 -242.997 34.4876 -237.401 105.139L261.038 65.6595C265.31 119.599 249.227 173.182 215.956 215.852L-178.352 -91.5899ZM-237.401 105.139C-231.805 175.791 -199.952 241.785 -148.118 290.12L192.874 -75.5636C232.447 -38.6628 256.765 11.7205 261.038 65.6595L-237.401 105.139ZM-148.118 290.12C-96.2839 338.454 -28.2274 365.623 42.6425 366.275L47.2382 -133.704C101.344 -133.207 153.302 -112.464 192.874 -75.5636L-148.118 290.12ZM42.6425 366.275C113.513 366.926 182.057 341.012 234.771 293.639L-99.4421 -78.2505C-59.1977 -114.418 -6.86751 -134.202 47.2382 -133.704L42.6425 366.275ZM-118.28 274.801L-110.451 283.513L261.439 -50.7L253.609 -59.4122L-118.28 274.801ZM-163.305 -109.336C-168.546 -103.645 -173.568 -97.7263 -178.352 -91.5899L215.956 215.852C212.305 220.536 208.472 225.055 204.47 229.399L-163.305 -109.336ZM200.998 -106.329C226.627 -83.0545 245.727 -53.859 256.862 -21.6501L-215.697 141.714C-199.639 188.165 -172.096 230.262 -135.141 263.821L200.998 -106.329ZM-1.95895 -196.826C-28.6848 -192.313 -54.4102 -184.029 -78.4172 -172.394L139.662 277.541C121.334 286.425 101.691 292.75 81.2892 296.195L-1.95895 -196.826ZM-213.341 107.179C-212.013 113.112 -210.497 118.99 -208.797 124.805L271.117 -15.4894C272.415 -11.0496 273.572 -6.56152 274.586 -2.03165L-213.341 107.179ZM-208.797 124.805C-194.243 174.59 -166.193 219.8 -127.266 255.15L208.872 -115C238.592 -88.0113 260.006 -53.495 271.117 -15.4894L-208.797 124.805ZM-164.188 137.462C-164.833 134.992 -165.433 132.517 -165.988 130.038L321.936 20.8145C321.209 17.5671 320.423 14.3247 319.578 11.0893L-164.188 137.462ZM-31.056 -149.546C-24.9469 -152.507 -18.6839 -155.187 -12.2859 -157.573L162.417 310.913C170.799 307.787 179.003 304.276 187.004 300.398L-31.056 -149.546ZM-47.3564 318.957C19.3956 345.956 93.6487 347.608 161.45 323.723L-4.68577 -147.869C42.3349 -164.434 93.8281 -163.288 140.12 -144.565L-47.3564 318.957ZM-168.624 49.3501C-164.963 25.911 -157.44 3.02311 -146.174 -18.3142L295.983 215.132C310.739 187.182 320.593 157.206 325.388 126.503L-168.624 49.3501ZM306.341 220.601C330.282 175.255 341.817 124.826 340.377 74.3373L-159.42 88.5851C-160.418 53.5762 -152.42 18.6031 -135.816 -12.8455L306.341 220.601ZM240.382 281.534C276.089 254.781 305.584 220.039 326.236 179.641L-118.962 -47.9512C-104.64 -75.9676 -84.1825 -100.062 -59.4241 -118.612L240.382 281.534ZM-171.865 -133.207C-212.673 -79.4202 -233.697 -13.4427 -231.78 53.675L268.016 39.4028C269.345 85.9503 254.766 131.704 226.465 169.006L-171.865 -133.207ZM-131.776 -153.54C-152.566 -137.966 -171.371 -119.593 -187.589 -98.7922L206.719 208.65C195.473 223.073 182.43 235.816 168.012 246.618L-131.776 -153.54ZM113.279 275.87C102.298 279.739 90.9448 282.685 79.339 284.645L-3.9092 -208.376C-20.649 -205.549 -37.0185 -201.301 -52.8506 -195.723L113.279 275.87ZM-65.9316 254.688C-104.467 229.77 -133.376 192.728 -148.27 149.639L324.298 -13.7017C302.823 -75.8327 261.134 -129.247 205.569 -165.178L-65.9316 254.688ZM271.893 237.345C289.189 218.569 304.006 197.393 315.807 174.31L-129.392 -53.2829C-120.383 -70.9041 -109.07 -87.0725 -95.8649 -101.408L271.893 237.345ZM-162.533 -126.128C-191.126 -88.4407 -209.603 -44.5193 -216.79 1.48808L277.219 78.6589C271.733 113.779 257.627 147.313 235.797 176.086L-162.533 -126.128Z" fill="#25CED1" mask="url(#path-1-inside-1_11_152)"/>
<path d="M30.625 52.625C26.625 53.525 22.2917 57.875 20.625 60C24.025 56.2 29.2917 55.7083 31.5 55.875C31.2 55.075 30.7917 53.375 30.625 52.625Z" fill="black" fill-opacity="0.1"/>
<path d="M67.8451 57.8834C65.1593 54.7855 60.1607 52.1342 57.5 51.6716C62.4566 52.8685 64.4979 58.1679 65.3961 60.1922C65.9589 59.5493 67.2633 58.3851 67.8451 57.8834Z" fill="black" fill-opacity="0.1"/>
<path d="M107.75 54C104.325 51.7458 96.5 49.75 96.5 49.75C96.5 49.75 105.375 54.625 106.875 57.625C107.125 56.75 107.5 55 107.75 54Z" fill="black" fill-opacity="0.1"/>
<path d="M90.375 81.5C90.2884 81.6664 90.1862 81.8289 90.0697 81.9876C86.7641 87.0987 79.607 93.1695 77.125 93.375C77.5 92.25 78.25 89.5 78.375 87.875C82.5231 86.1519 88.1801 84.5619 90.0697 81.9876C90.1755 81.824 90.2774 81.6614 90.375 81.5Z" fill="black" fill-opacity="0.1"/>
<path d="M67.735 121.992C63.7893 118.909 57.625 113.875 57.625 113.875C57.625 113.875 60.625 119.125 64.875 123.5C65.625 123.125 66.75 122.625 67.735 121.992Z" fill="black" fill-opacity="0.1"/>
</svg>
