<svg width="90" height="90" viewBox="0 0 90 90" fill="none" xmlns="http://www.w3.org/2000/svg">
<path d="M40.875 7.875C23.625 9.75 9.75 23.625 7.875 40.5C6 58.125 16.125 73.875 31.5 79.875C32.625 80.25 33.75 79.5 33.75 78V72C33.75 72 32.25 72.375 30.375 72.375C25.125 72.375 22.875 67.875 22.5 65.25C22.125 63.75 21.375 62.625 20.25 61.5C19.125 61.125 18.75 61.125 18.75 60.75C18.75 60 19.875 60 20.25 60C22.5 60 24.375 62.625 25.125 63.75C27 66.75 29.25 67.5 30.375 67.5C31.875 67.5 33 67.125 33.75 66.75C34.125 64.125 35.25 61.5 37.5 60C28.875 58.125 22.5 53.25 22.5 45C22.5 40.875 24.375 36.75 27 33.75C26.625 33 26.25 31.125 26.25 28.5C26.25 27 26.25 24.75 27.375 22.5C27.375 22.5 32.625 22.5 37.875 27.375C39.75 26.625 42.375 26.25 45 26.25C47.625 26.25 50.25 26.625 52.5 27.375C57.375 22.5 63 22.5 63 22.5C63.75 24.75 63.75 27 63.75 28.5C63.75 31.5 63.375 33 63 33.75C65.625 36.75 67.5 40.5 67.5 45C67.5 53.25 61.125 58.125 52.5 60C54.75 61.875 56.25 65.25 56.25 68.625V78.375C56.25 79.5 57.375 80.625 58.875 80.25C72.75 74.625 82.5 61.125 82.5 45.375C82.5 22.875 63.375 5.25 40.875 7.875Z" fill="black"/>
</svg>
