<svg width="90" height="90" viewBox="0 0 90 90" fill="none" xmlns="http://www.w3.org/2000/svg">
<path d="M29.9941 9C18.4171 9 9 18.4259 9 30.0059V60.0059C9 71.5829 18.4259 81 30.0059 81H60.0059C71.5829 81 81 71.5741 81 59.9941V29.9941C81 18.4171 71.5741 9 59.9941 9H29.9941ZM66 21C67.656 21 69 22.344 69 24C69 25.656 67.656 27 66 27C64.344 27 63 25.656 63 24C63 22.344 64.344 21 66 21ZM45 27C54.927 27 63 35.073 63 45C63 54.927 54.927 63 45 63C35.073 63 27 54.927 27 45C27 35.073 35.073 27 45 27ZM45 33C41.8174 33 38.7652 34.2643 36.5147 36.5147C34.2643 38.7652 33 41.8174 33 45C33 48.1826 34.2643 51.2348 36.5147 53.4853C38.7652 55.7357 41.8174 57 45 57C48.1826 57 51.2348 55.7357 53.4853 53.4853C55.7357 51.2348 57 48.1826 57 45C57 41.8174 55.7357 38.7652 53.4853 36.5147C51.2348 34.2643 48.1826 33 45 33V33Z" fill="black"/>
</svg>
