<svg width="24" height="24" viewBox="0 0 24 24" fill="none" xmlns="http://www.w3.org/2000/svg">
<path fill-rule="evenodd" clip-rule="evenodd" d="M7.11429 5.84615C7.11429 3.72198 8.84119 2 10.9714 2H13.0286C15.1588 2 16.8857 3.72198 16.8857 5.84615V8.39316C17.389 8.43306 17.858 8.4735 18.2684 8.51058C19.5954 8.63049 20.6487 9.67088 20.7692 10.9995C20.8768 12.185 21 13.8139 21 15.0769C21 16.3399 20.8768 17.9689 20.7692 19.1544C20.6487 20.483 19.5954 21.5234 18.2684 21.6433C16.6013 21.7939 13.9663 22 12 22C10.0337 22 7.39868 21.7939 5.73161 21.6433C4.40463 21.5234 3.35132 20.483 3.23078 19.1544C3.12322 17.9689 3 16.3399 3 15.0769C3 13.8139 3.12322 12.185 3.23078 10.9995C3.35132 9.67088 4.40463 8.63049 5.73161 8.51058C6.14199 8.4735 6.61102 8.43306 7.11429 8.39316V5.84615ZM7.93656 9.8735C7.94067 9.87324 7.94478 9.87294 7.94888 9.87261C9.30113 9.7742 10.7906 9.69231 12 9.69231C13.2094 9.69231 14.6989 9.7742 16.0511 9.87261C16.0552 9.87294 16.0593 9.87324 16.0634 9.8735C16.8198 9.92863 17.5327 9.98887 18.1291 10.0428C18.7194 10.0961 19.1797 10.555 19.2326 11.1381C19.3397 12.3179 19.4571 13.8882 19.4571 15.0769C19.4571 16.2657 19.3397 17.8359 19.2326 19.0157C19.1797 19.5989 18.7194 20.0577 18.1291 20.1111C16.4637 20.2616 13.8899 20.4615 12 20.4615C10.1101 20.4615 7.53629 20.2616 5.87085 20.1111C5.28062 20.0577 4.82027 19.5989 4.76736 19.0157C4.66032 17.8359 4.54286 16.2657 4.54286 15.0769C4.54286 13.8882 4.66032 12.3179 4.76736 11.1381C4.82027 10.5549 5.28062 10.0961 5.87085 10.0428C6.4673 9.98887 7.18024 9.92863 7.93656 9.8735ZM15.3429 8.28188C14.2001 8.2084 13.0116 8.15385 12 8.15385C10.9884 8.15385 9.79986 8.2084 8.65714 8.28188V5.84615C8.65714 4.57165 9.69328 3.53846 10.9714 3.53846H13.0286C14.3067 3.53846 15.3429 4.57165 15.3429 5.84615V8.28188ZM12 13.2821C12.426 13.2821 12.7714 13.6264 12.7714 14.0513V16.1026C12.7714 16.5274 12.426 16.8718 12 16.8718C11.574 16.8718 11.2286 16.5274 11.2286 16.1026V14.0513C11.2286 13.6264 11.574 13.2821 12 13.2821Z" fill="currentColor"/>
</svg>
