<svg width="90" height="90" viewBox="0 0 90 90" fill="none" xmlns="http://www.w3.org/2000/svg">
<path d="M45 9C25.119 9 9 25.119 9 45C9 64.881 25.119 81 45 81C64.881 81 81 64.881 81 45C81 25.119 64.881 9 45 9ZM31.488 25.209C34.014 25.209 35.697 26.892 35.697 29.136C35.697 31.38 34.014 33.063 31.209 33.063C28.683 33.066 27 31.38 27 29.136C27 26.892 28.683 25.209 31.488 25.209ZM36 60H27V36H36V60ZM66 60H57.528V46.884C57.528 43.257 55.269 42.42 54.423 42.42C53.577 42.42 50.751 42.978 50.751 46.884C50.751 47.442 50.751 60 50.751 60H42V36H50.754V39.348C51.882 37.395 54.141 36 58.377 36C62.613 36 66 39.348 66 46.884V60Z" fill="black"/>
</svg>
