<svg width="90" height="90" viewBox="0 0 90 90" fill="none" xmlns="http://www.w3.org/2000/svg">
<g clip-path="url(#clip0_2_30)">
<path d="M25.5 21C22.1513 21 18.8354 21.6596 15.7416 22.9411C12.6478 24.2226 9.83667 26.1009 7.46878 28.4688C5.10088 30.8367 3.22257 33.6478 1.94107 36.7416C0.659577 39.8354 0 43.1513 0 46.5C0 49.8487 0.659577 53.1646 1.94107 56.2584C3.22257 59.3522 5.10088 62.1633 7.46878 64.5312C9.83667 66.8991 12.6478 68.7774 15.7416 70.0589C18.8354 71.3404 22.1513 72 25.5 72C28.8487 72 32.1646 71.3404 35.2584 70.0589C38.3522 68.7774 41.1633 66.8991 43.5312 64.5312C45.8991 62.1633 47.7774 59.3522 49.0589 56.2584C50.3404 53.1646 51 49.8487 51 46.5C51 43.1513 50.3404 39.8354 49.0589 36.7416C47.7774 33.6478 45.8991 30.8367 43.5312 28.4688C41.1633 26.1009 38.3522 24.2226 35.2584 22.9411C32.1646 21.6596 28.8487 21 25.5 21V21ZM66 24C64.4241 24 62.8637 24.582 61.4078 25.7127C59.9519 26.8434 58.629 28.5008 57.5147 30.5901C56.4004 32.6794 55.5165 35.1598 54.9134 37.8896C54.3104 40.6194 54 43.5453 54 46.5C54 49.4547 54.3104 52.3805 54.9134 55.1104C55.5165 57.8402 56.4004 60.3206 57.5147 62.4099C58.629 64.4992 59.9519 66.1566 61.4078 67.2873C62.8637 68.418 64.4241 69 66 69C67.5759 69 69.1363 68.418 70.5922 67.2873C72.0481 66.1566 73.371 64.4992 74.4853 62.4099C75.5996 60.3206 76.4835 57.8402 77.0866 55.1104C77.6896 52.3805 78 49.4547 78 46.5C78 43.5453 77.6896 40.6194 77.0866 37.8896C76.4835 35.1598 75.5996 32.6794 74.4853 30.5901C73.371 28.5008 72.0481 26.8434 70.5922 25.7127C69.1363 24.582 67.5759 24 66 24V24ZM85.5 27C84.3065 27 83.1619 29.0545 82.318 32.7114C81.4741 36.3684 81 41.3283 81 46.5C81 51.6717 81.4741 56.6316 82.318 60.2886C83.1619 63.9455 84.3065 66 85.5 66C86.6935 66 87.8381 63.9455 88.682 60.2886C89.5259 56.6316 90 51.6717 90 46.5C90 41.3283 89.5259 36.3684 88.682 32.7114C87.8381 29.0545 86.6935 27 85.5 27V27Z" fill="black"/>
</g>
<defs>
<clipPath id="clip0_2_30">
<rect width="90" height="90" fill="white"/>
</clipPath>
</defs>
</svg>
