<svg width="24" height="24" viewBox="0 0 24 24" fill="none" xmlns="http://www.w3.org/2000/svg">
<path fill-rule="evenodd" clip-rule="evenodd" d="M6.5 3.58824C5.76727 3.58824 4.73635 3.76289 4.052 3.89936C3.97331 3.91505 3.91505 3.97331 3.89936 4.052C3.76289 4.73635 3.58824 5.76727 3.58824 6.5C3.58824 7.23273 3.76289 8.26365 3.89936 8.948C3.91505 9.02669 3.97331 9.08495 4.052 9.10064C4.73635 9.23711 5.76727 9.41177 6.5 9.41177C7.23273 9.41177 8.26365 9.23711 8.948 9.10064C9.02669 9.08495 9.08495 9.02669 9.10064 8.948C9.23711 8.26365 9.41177 7.23273 9.41177 6.5C9.41177 5.76727 9.23711 4.73635 9.10064 4.052C9.08495 3.97331 9.02669 3.91505 8.948 3.89936C8.26365 3.76289 7.23273 3.58824 6.5 3.58824ZM3.7414 2.34179C4.42728 2.20502 5.59496 2 6.5 2C7.40504 2 8.57272 2.20502 9.2586 2.34179C9.96673 2.483 10.517 3.03328 10.6582 3.7414C10.795 4.42728 11 5.59496 11 6.5C11 7.40504 10.795 8.57272 10.6582 9.2586C10.517 9.96673 9.96672 10.517 9.2586 10.6582C8.57272 10.795 7.40504 11 6.5 11C5.59496 11 4.42728 10.795 3.7414 10.6582C3.03327 10.517 2.483 9.96672 2.34179 9.2586C2.20502 8.57272 2 7.40504 2 6.5C2 5.59496 2.20502 4.42728 2.34179 3.7414C2.483 3.03327 3.03328 2.483 3.7414 2.34179Z" fill="currentColor"/>
<path fill-rule="evenodd" clip-rule="evenodd" d="M6.5 14.5882C5.76727 14.5882 4.73635 14.7629 4.052 14.8994C3.97331 14.9151 3.91505 14.9733 3.89936 15.052C3.76289 15.7363 3.58824 16.7673 3.58824 17.5C3.58824 18.2327 3.76289 19.2637 3.89936 19.948C3.91505 20.0267 3.97331 20.0849 4.052 20.1006C4.73635 20.2371 5.76727 20.4118 6.5 20.4118C7.23273 20.4118 8.26365 20.2371 8.948 20.1006C9.02669 20.0849 9.08495 20.0267 9.10064 19.948C9.23711 19.2637 9.41177 18.2327 9.41177 17.5C9.41177 16.7673 9.23711 15.7363 9.10064 15.052C9.08495 14.9733 9.02669 14.9151 8.948 14.8994C8.26365 14.7629 7.23273 14.5882 6.5 14.5882ZM3.7414 13.3418C4.42728 13.205 5.59496 13 6.5 13C7.40504 13 8.57272 13.205 9.2586 13.3418C9.96673 13.483 10.517 14.0333 10.6582 14.7414C10.795 15.4273 11 16.595 11 17.5C11 18.405 10.795 19.5727 10.6582 20.2586C10.517 20.9667 9.96672 21.517 9.2586 21.6582C8.57272 21.795 7.40504 22 6.5 22C5.59496 22 4.42728 21.795 3.7414 21.6582C3.03327 21.517 2.483 20.9667 2.34179 20.2586C2.20502 19.5727 2 18.405 2 17.5C2 16.595 2.20502 15.4273 2.34179 14.7414C2.483 14.0333 3.03328 13.483 3.7414 13.3418Z" fill="currentColor"/>
<path fill-rule="evenodd" clip-rule="evenodd" d="M17.5 3.58824C16.7673 3.58824 15.7363 3.76289 15.052 3.89936C14.9733 3.91505 14.9151 3.97331 14.8994 4.052C14.7629 4.73635 14.5882 5.76727 14.5882 6.5C14.5882 7.23273 14.7629 8.26365 14.8994 8.948C14.9151 9.02669 14.9733 9.08495 15.052 9.10064C15.7363 9.23711 16.7673 9.41177 17.5 9.41177C18.2327 9.41177 19.2637 9.23711 19.948 9.10064C20.0267 9.08495 20.0849 9.02669 20.1006 8.948C20.2371 8.26365 20.4118 7.23273 20.4118 6.5C20.4118 5.76727 20.2371 4.73635 20.1006 4.052C20.0849 3.97331 20.0267 3.91505 19.948 3.89936C19.2637 3.76289 18.2327 3.58824 17.5 3.58824ZM14.7414 2.34179C15.4273 2.20502 16.595 2 17.5 2C18.405 2 19.5727 2.20502 20.2586 2.34179C20.9667 2.483 21.517 3.03328 21.6582 3.7414C21.795 4.42728 22 5.59496 22 6.5C22 7.40504 21.795 8.57272 21.6582 9.2586C21.517 9.96673 20.9667 10.517 20.2586 10.6582C19.5727 10.795 18.405 11 17.5 11C16.595 11 15.4273 10.795 14.7414 10.6582C14.0333 10.517 13.483 9.96672 13.3418 9.2586C13.205 8.57272 13 7.40504 13 6.5C13 5.59496 13.205 4.42728 13.3418 3.7414C13.483 3.03327 14.0333 2.483 14.7414 2.34179Z" fill="currentColor"/>
<path fill-rule="evenodd" clip-rule="evenodd" d="M17.5 14.5882C16.7673 14.5882 15.7363 14.7629 15.052 14.8994C14.9733 14.9151 14.9151 14.9733 14.8994 15.052C14.7629 15.7363 14.5882 16.7673 14.5882 17.5C14.5882 18.2327 14.7629 19.2637 14.8994 19.948C14.9151 20.0267 14.9733 20.0849 15.052 20.1006C15.7363 20.2371 16.7673 20.4118 17.5 20.4118C18.2327 20.4118 19.2637 20.2371 19.948 20.1006C20.0267 20.0849 20.0849 20.0267 20.1006 19.948C20.2371 19.2637 20.4118 18.2327 20.4118 17.5C20.4118 16.7673 20.2371 15.7363 20.1006 15.052C20.0849 14.9733 20.0267 14.9151 19.948 14.8994C19.2637 14.7629 18.2327 14.5882 17.5 14.5882ZM14.7414 13.3418C15.4273 13.205 16.595 13 17.5 13C18.405 13 19.5727 13.205 20.2586 13.3418C20.9667 13.483 21.517 14.0333 21.6582 14.7414C21.795 15.4273 22 16.595 22 17.5C22 18.405 21.795 19.5727 21.6582 20.2586C21.517 20.9667 20.9667 21.517 20.2586 21.6582C19.5727 21.795 18.405 22 17.5 22C16.595 22 15.4273 21.795 14.7414 21.6582C14.0333 21.517 13.483 20.9667 13.3418 20.2586C13.205 19.5727 13 18.405 13 17.5C13 16.595 13.205 15.4273 13.3418 14.7414C13.483 14.0333 14.0333 13.483 14.7414 13.3418Z" fill="currentColor"/>
</svg>
