<svg width="24" height="24" viewBox="0 0 24 24" fill="none" xmlns="http://www.w3.org/2000/svg">
<path fill-rule="evenodd" clip-rule="evenodd" d="M20.4615 6.5C20.4615 5.80833 20.296 4.84152 20.1553 4.15525C20.138 4.07099 20.0674 3.99791 19.9602 3.98938C18.3852 3.86403 14.6177 3.58824 12 3.58823C9.38234 3.58823 5.6148 3.86403 4.03979 3.98938C3.9326 3.99791 3.86195 4.07099 3.84468 4.15525C3.70398 4.84152 3.53846 5.80833 3.53846 6.5C3.53846 7.19166 3.70398 8.15847 3.84468 8.84475C3.86195 8.92901 3.9326 9.00209 4.03979 9.01062C5.6148 9.13597 9.38234 9.41176 12 9.41176C14.6177 9.41176 18.3852 9.13597 19.9602 9.01062C20.0674 9.00209 20.138 8.92901 20.1553 8.84475C20.296 8.15848 20.4615 7.19167 20.4615 6.5ZM21.6604 3.82638C21.8021 4.51717 22 5.62697 22 6.5C22 7.37303 21.8021 8.48283 21.6604 9.17362C21.4968 9.97165 20.8422 10.5334 20.0785 10.5942C18.5077 10.7192 14.6847 11 12 11C9.31527 11 5.49231 10.7192 3.92155 10.5942C3.15775 10.5334 2.50318 9.97165 2.33956 9.17362C2.19793 8.48283 2 7.37303 2 6.5C2 5.62697 2.19793 4.51717 2.33956 3.82638C2.50318 3.02835 3.15775 2.46663 3.92155 2.40584C5.49232 2.28083 9.31527 2 12 2C14.6847 2 18.5077 2.28083 20.0785 2.40584C20.8422 2.46663 21.4968 3.02835 21.6604 3.82638Z" fill="currentColor"/>
<path fill-rule="evenodd" clip-rule="evenodd" d="M20.4615 17.5C20.4615 16.8083 20.296 15.8415 20.1553 15.1553C20.138 15.071 20.0674 14.9979 19.9602 14.9894C18.3852 14.864 14.6177 14.5882 12 14.5882C9.38234 14.5882 5.6148 14.864 4.03979 14.9894C3.9326 14.9979 3.86195 15.071 3.84468 15.1552C3.70398 15.8415 3.53846 16.8083 3.53846 17.5C3.53846 18.1917 3.70398 19.1585 3.84468 19.8447C3.86195 19.929 3.9326 20.0021 4.03979 20.0106C5.6148 20.136 9.38234 20.4118 12 20.4118C14.6177 20.4118 18.3852 20.136 19.9602 20.0106C20.0674 20.0021 20.138 19.929 20.1553 19.8447C20.296 19.1585 20.4615 18.1917 20.4615 17.5ZM21.6604 14.8264C21.8021 15.5172 22 16.627 22 17.5C22 18.373 21.8021 19.4828 21.6604 20.1736C21.4968 20.9716 20.8422 21.5334 20.0785 21.5942C18.5077 21.7192 14.6847 22 12 22C9.31527 22 5.49231 21.7192 3.92155 21.5942C3.15775 21.5334 2.50317 20.9716 2.33956 20.1736C2.19793 19.4828 2 18.373 2 17.5C2 16.627 2.19793 15.5172 2.33956 14.8264C2.50318 14.0284 3.15775 13.4666 3.92155 13.4058C5.49231 13.2808 9.31527 13 12 13C14.6847 13 18.5077 13.2808 20.0785 13.4058C20.8422 13.4666 21.4968 14.0284 21.6604 14.8264Z" fill="currentColor"/>
</svg>
