<svg width="90" height="90" viewBox="0 0 90 90" fill="none" xmlns="http://www.w3.org/2000/svg">
<path d="M45 9C25.119 9 9 25.119 9 45C9 64.881 25.119 81 45 81C64.881 81 81 64.881 81 45C81 25.119 64.881 9 45 9ZM64.392 37.605C64.41 38.004 64.419 38.4 64.419 38.796C64.419 51 55.134 65.064 38.151 65.064C32.934 65.064 28.083 63.537 24 60.915C24.723 61.002 25.458 61.041 26.205 61.041C30.534 61.041 34.512 59.568 37.668 57.087C33.627 57.012 30.216 54.342 29.043 50.676C29.607 50.784 30.186 50.841 30.78 50.841C31.623 50.841 32.442 50.727 33.213 50.517C28.989 49.671 25.806 45.939 25.806 41.466C25.806 41.427 25.806 41.388 25.806 41.349C27.051 42.042 28.473 42.456 29.988 42.504C27.513 40.851 25.881 38.022 25.881 34.821C25.881 33.126 26.334 31.539 27.129 30.18C31.683 35.766 38.487 39.444 46.158 39.828C46.002 39.153 45.921 38.448 45.921 37.725C45.921 32.628 50.055 28.491 55.152 28.491C57.807 28.491 60.207 29.613 61.89 31.407C63.993 30.99 65.97 30.225 67.755 29.166C67.065 31.323 65.601 33.129 63.693 34.275C65.559 34.053 67.338 33.558 68.997 32.823C67.764 34.677 66.201 36.3 64.392 37.605Z" fill="black"/>
</svg>
