<svg width="90" height="90" viewBox="0 0 90 90" fill="none" xmlns="http://www.w3.org/2000/svg">
<path d="M9.75 52.7653L5 35.3108H9.89773L12.6023 47.038H12.7614L15.5795 35.3108H20.3864L23.25 46.9699H23.3977L26.0568 35.3108H30.9432L26.2045 52.7653H21.0795L18.0795 41.788H17.8636L14.8636 52.7653H9.75Z" fill="black"/>
<path d="M36.9688 52.7653L32.2188 35.3108H37.1165L39.821 47.038H39.9801L42.7983 35.3108H47.6051L50.4688 46.9699H50.6165L53.2756 35.3108H58.1619L53.4233 52.7653H48.2983L45.2983 41.788H45.0824L42.0824 52.7653H36.9688Z" fill="black"/>
<path d="M64.1875 52.7653L59.4375 35.3108H64.3352L67.0398 47.038H67.1989L70.017 35.3108H74.8239L77.6875 46.9699H77.8352L80.4943 35.3108H85.3807L80.642 52.7653H75.517L72.517 41.788H72.3011L69.3011 52.7653H64.1875Z" fill="black"/>
<path d="M75.875 26.2653C64.675 5.8653 30.375 0.765306 14.375 26.2653H21.9999C24.875 21.7653 31.875 17.2653 34.875 15.7653C32.375 19.7653 31.375 21.7653 29.375 26.2653L36.375 26.2653C36.375 23.7653 40.875 14.2653 45.875 14.2653C49.875 14.2653 53.5417 22.2653 54.875 26.2653H61.375C61.375 23.0653 58.0417 18.2653 56.375 16.2653C61.875 17.2653 67.375 23.932 69.375 26.2653H75.875Z" fill="black"/>
<path d="M14.375 63C25.575 83.4 59.875 88.5 75.875 63H68.2501C65.375 67.5 58.375 72 55.375 73.5C57.875 69.5 58.875 67.5 60.875 63L53.875 63C53.875 65.5 49.375 75 44.375 75C40.375 75 36.7083 67 35.375 63H28.875C28.875 66.2 32.2083 71 33.875 73C28.375 72 22.875 65.3333 20.875 63H14.375Z" fill="black"/>
<path d="M9.75 52.7653L5 35.3108H9.89773L12.6023 47.038H12.7614L15.5795 35.3108H20.3864L23.25 46.9699H23.3977L26.0568 35.3108H30.9432L26.2045 52.7653H21.0795L18.0795 41.788H17.8636L14.8636 52.7653H9.75Z" stroke="black"/>
<path d="M36.9688 52.7653L32.2188 35.3108H37.1165L39.821 47.038H39.9801L42.7983 35.3108H47.6051L50.4688 46.9699H50.6165L53.2756 35.3108H58.1619L53.4233 52.7653H48.2983L45.2983 41.788H45.0824L42.0824 52.7653H36.9688Z" stroke="black"/>
<path d="M64.1875 52.7653L59.4375 35.3108H64.3352L67.0398 47.038H67.1989L70.017 35.3108H74.8239L77.6875 46.9699H77.8352L80.4943 35.3108H85.3807L80.642 52.7653H75.517L72.517 41.788H72.3011L69.3011 52.7653H64.1875Z" stroke="black"/>
<path d="M75.875 26.2653C64.675 5.8653 30.375 0.765306 14.375 26.2653H21.9999C24.875 21.7653 31.875 17.2653 34.875 15.7653C32.375 19.7653 31.375 21.7653 29.375 26.2653L36.375 26.2653C36.375 23.7653 40.875 14.2653 45.875 14.2653C49.875 14.2653 53.5417 22.2653 54.875 26.2653H61.375C61.375 23.0653 58.0417 18.2653 56.375 16.2653C61.875 17.2653 67.375 23.932 69.375 26.2653H75.875Z" stroke="black"/>
<path d="M14.375 63C25.575 83.4 59.875 88.5 75.875 63H68.2501C65.375 67.5 58.375 72 55.375 73.5C57.875 69.5 58.875 67.5 60.875 63L53.875 63C53.875 65.5 49.375 75 44.375 75C40.375 75 36.7083 67 35.375 63H28.875C28.875 66.2 32.2083 71 33.875 73C28.375 72 22.875 65.3333 20.875 63H14.375Z" stroke="black"/>
</svg>
