<svg width="512" height="512" viewBox="0 0 512 512" fill="none" xmlns="http://www.w3.org/2000/svg">
<rect width="512" height="512" rx="256" fill="#EF476F" fill-opacity="0.15"/>
<path fill-rule="evenodd" clip-rule="evenodd" d="M158.834 158.834C162.614 155.055 168.741 155.055 172.52 158.834L256 242.314L339.48 158.834C343.259 155.055 349.386 155.055 353.166 158.834C356.945 162.614 356.945 168.741 353.166 172.52L269.686 256L353.166 339.48C356.945 343.259 356.945 349.386 353.166 353.166C349.386 356.945 343.259 356.945 339.48 353.166L256 269.686L172.52 353.166C168.741 356.945 162.614 356.945 158.834 353.166C155.055 349.386 155.055 343.259 158.834 339.48L242.314 256L158.834 172.52C155.055 168.741 155.055 162.614 158.834 158.834Z" fill="#EF476F"/>
</svg>
